<?xml version="1.0" encoding="utf-8" standalone="no"?>
<!DOCTYPE svg PUBLIC "-//W3C//DTD SVG 1.1//EN"
  "http://www.w3.org/Graphics/SVG/1.1/DTD/svg11.dtd">
<!-- Created with matplotlib (https://matplotlib.org/) -->
<svg height="345.6pt" version="1.1" viewBox="0 0 460.8 345.6" width="460.8pt" xmlns="http://www.w3.org/2000/svg" xmlns:xlink="http://www.w3.org/1999/xlink">
 <defs>
  <style type="text/css">
*{stroke-linecap:butt;stroke-linejoin:round;}
  </style>
 </defs>
 <g id="figure_1">
  <g id="patch_1">
   <path d="M 0 345.6 
L 460.8 345.6 
L 460.8 0 
L 0 0 
z
" style="fill:#ffffff;"/>
  </g>
  <g id="axes_1">
   <g id="patch_2">
    <path d="M 33.64 303.64 
L 447.48 303.64 
L 447.48 13.32 
L 33.64 13.32 
z
" style="fill:#ffffff;"/>
   </g>
   <g id="matplotlib.axis_1">
    <g id="xtick_1">
     <g id="line2d_1">
      <defs>
       <path d="M 0 0 
L 0 3.5 
" id="m714cfc16a1" style="stroke:#000000;stroke-width:0.8;"/>
      </defs>
      <g>
       <use style="stroke:#000000;stroke-width:0.8;" x="52.450909" xlink:href="#m714cfc16a1" y="303.64"/>
      </g>
     </g>
     <g id="text_1">
      <!-- 0.00 -->
      <defs>
       <path d="M 31.78125 66.40625 
Q 24.171875 66.40625 20.328125 58.90625 
Q 16.5 51.421875 16.5 36.375 
Q 16.5 21.390625 20.328125 13.890625 
Q 24.171875 6.390625 31.78125 6.390625 
Q 39.453125 6.390625 43.28125 13.890625 
Q 47.125 21.390625 47.125 36.375 
Q 47.125 51.421875 43.28125 58.90625 
Q 39.453125 66.40625 31.78125 66.40625 
z
M 31.78125 74.21875 
Q 44.046875 74.21875 50.515625 64.515625 
Q 56.984375 54.828125 56.984375 36.375 
Q 56.984375 17.96875 50.515625 8.265625 
Q 44.046875 -1.421875 31.78125 -1.421875 
Q 19.53125 -1.421875 13.0625 8.265625 
Q 6.59375 17.96875 6.59375 36.375 
Q 6.59375 54.828125 13.0625 64.515625 
Q 19.53125 74.21875 31.78125 74.21875 
z
" id="DejaVuSans-48"/>
       <path d="M 10.6875 12.40625 
L 21 12.40625 
L 21 0 
L 10.6875 0 
z
" id="DejaVuSans-46"/>
      </defs>
      <g transform="translate(41.318097 318.238437)scale(0.1 -0.1)">
       <use xlink:href="#DejaVuSans-48"/>
       <use x="63.623047" xlink:href="#DejaVuSans-46"/>
       <use x="95.410156" xlink:href="#DejaVuSans-48"/>
       <use x="159.033203" xlink:href="#DejaVuSans-48"/>
      </g>
     </g>
    </g>
    <g id="xtick_2">
     <g id="line2d_2">
      <g>
       <use style="stroke:#000000;stroke-width:0.8;" x="99.478182" xlink:href="#m714cfc16a1" y="303.64"/>
      </g>
     </g>
     <g id="text_2">
      <!-- 0.25 -->
      <defs>
       <path d="M 19.1875 8.296875 
L 53.609375 8.296875 
L 53.609375 0 
L 7.328125 0 
L 7.328125 8.296875 
Q 12.9375 14.109375 22.625 23.890625 
Q 32.328125 33.6875 34.8125 36.53125 
Q 39.546875 41.84375 41.421875 45.53125 
Q 43.3125 49.21875 43.3125 52.78125 
Q 43.3125 58.59375 39.234375 62.25 
Q 35.15625 65.921875 28.609375 65.921875 
Q 23.96875 65.921875 18.8125 64.3125 
Q 13.671875 62.703125 7.8125 59.421875 
L 7.8125 69.390625 
Q 13.765625 71.78125 18.9375 73 
Q 24.125 74.21875 28.421875 74.21875 
Q 39.75 74.21875 46.484375 68.546875 
Q 53.21875 62.890625 53.21875 53.421875 
Q 53.21875 48.921875 51.53125 44.890625 
Q 49.859375 40.875 45.40625 35.40625 
Q 44.1875 33.984375 37.640625 27.21875 
Q 31.109375 20.453125 19.1875 8.296875 
z
" id="DejaVuSans-50"/>
       <path d="M 10.796875 72.90625 
L 49.515625 72.90625 
L 49.515625 64.59375 
L 19.828125 64.59375 
L 19.828125 46.734375 
Q 21.96875 47.46875 24.109375 47.828125 
Q 26.265625 48.1875 28.421875 48.1875 
Q 40.625 48.1875 47.75 41.5 
Q 54.890625 34.8125 54.890625 23.390625 
Q 54.890625 11.625 47.5625 5.09375 
Q 40.234375 -1.421875 26.90625 -1.421875 
Q 22.3125 -1.421875 17.546875 -0.640625 
Q 12.796875 0.140625 7.71875 1.703125 
L 7.71875 11.625 
Q 12.109375 9.234375 16.796875 8.0625 
Q 21.484375 6.890625 26.703125 6.890625 
Q 35.15625 6.890625 40.078125 11.328125 
Q 45.015625 15.765625 45.015625 23.390625 
Q 45.015625 31 40.078125 35.4375 
Q 35.15625 39.890625 26.703125 39.890625 
Q 22.75 39.890625 18.8125 39.015625 
Q 14.890625 38.140625 10.796875 36.28125 
z
" id="DejaVuSans-53"/>
      </defs>
      <g transform="translate(88.345369 318.238437)scale(0.1 -0.1)">
       <use xlink:href="#DejaVuSans-48"/>
       <use x="63.623047" xlink:href="#DejaVuSans-46"/>
       <use x="95.410156" xlink:href="#DejaVuSans-50"/>
       <use x="159.033203" xlink:href="#DejaVuSans-53"/>
      </g>
     </g>
    </g>
    <g id="xtick_3">
     <g id="line2d_3">
      <g>
       <use style="stroke:#000000;stroke-width:0.8;" x="146.505455" xlink:href="#m714cfc16a1" y="303.64"/>
      </g>
     </g>
     <g id="text_3">
      <!-- 0.50 -->
      <g transform="translate(135.372642 318.238437)scale(0.1 -0.1)">
       <use xlink:href="#DejaVuSans-48"/>
       <use x="63.623047" xlink:href="#DejaVuSans-46"/>
       <use x="95.410156" xlink:href="#DejaVuSans-53"/>
       <use x="159.033203" xlink:href="#DejaVuSans-48"/>
      </g>
     </g>
    </g>
    <g id="xtick_4">
     <g id="line2d_4">
      <g>
       <use style="stroke:#000000;stroke-width:0.8;" x="193.532727" xlink:href="#m714cfc16a1" y="303.64"/>
      </g>
     </g>
     <g id="text_4">
      <!-- 0.75 -->
      <defs>
       <path d="M 8.203125 72.90625 
L 55.078125 72.90625 
L 55.078125 68.703125 
L 28.609375 0 
L 18.3125 0 
L 43.21875 64.59375 
L 8.203125 64.59375 
z
" id="DejaVuSans-55"/>
      </defs>
      <g transform="translate(182.399915 318.238437)scale(0.1 -0.1)">
       <use xlink:href="#DejaVuSans-48"/>
       <use x="63.623047" xlink:href="#DejaVuSans-46"/>
       <use x="95.410156" xlink:href="#DejaVuSans-55"/>
       <use x="159.033203" xlink:href="#DejaVuSans-53"/>
      </g>
     </g>
    </g>
    <g id="xtick_5">
     <g id="line2d_5">
      <g>
       <use style="stroke:#000000;stroke-width:0.8;" x="240.56" xlink:href="#m714cfc16a1" y="303.64"/>
      </g>
     </g>
     <g id="text_5">
      <!-- 1.00 -->
      <defs>
       <path d="M 12.40625 8.296875 
L 28.515625 8.296875 
L 28.515625 63.921875 
L 10.984375 60.40625 
L 10.984375 69.390625 
L 28.421875 72.90625 
L 38.28125 72.90625 
L 38.28125 8.296875 
L 54.390625 8.296875 
L 54.390625 0 
L 12.40625 0 
z
" id="DejaVuSans-49"/>
      </defs>
      <g transform="translate(229.427188 318.238437)scale(0.1 -0.1)">
       <use xlink:href="#DejaVuSans-49"/>
       <use x="63.623047" xlink:href="#DejaVuSans-46"/>
       <use x="95.410156" xlink:href="#DejaVuSans-48"/>
       <use x="159.033203" xlink:href="#DejaVuSans-48"/>
      </g>
     </g>
    </g>
    <g id="xtick_6">
     <g id="line2d_6">
      <g>
       <use style="stroke:#000000;stroke-width:0.8;" x="287.587273" xlink:href="#m714cfc16a1" y="303.64"/>
      </g>
     </g>
     <g id="text_6">
      <!-- 1.25 -->
      <g transform="translate(276.45446 318.238437)scale(0.1 -0.1)">
       <use xlink:href="#DejaVuSans-49"/>
       <use x="63.623047" xlink:href="#DejaVuSans-46"/>
       <use x="95.410156" xlink:href="#DejaVuSans-50"/>
       <use x="159.033203" xlink:href="#DejaVuSans-53"/>
      </g>
     </g>
    </g>
    <g id="xtick_7">
     <g id="line2d_7">
      <g>
       <use style="stroke:#000000;stroke-width:0.8;" x="334.614545" xlink:href="#m714cfc16a1" y="303.64"/>
      </g>
     </g>
     <g id="text_7">
      <!-- 1.50 -->
      <g transform="translate(323.481733 318.238437)scale(0.1 -0.1)">
       <use xlink:href="#DejaVuSans-49"/>
       <use x="63.623047" xlink:href="#DejaVuSans-46"/>
       <use x="95.410156" xlink:href="#DejaVuSans-53"/>
       <use x="159.033203" xlink:href="#DejaVuSans-48"/>
      </g>
     </g>
    </g>
    <g id="xtick_8">
     <g id="line2d_8">
      <g>
       <use style="stroke:#000000;stroke-width:0.8;" x="381.641818" xlink:href="#m714cfc16a1" y="303.64"/>
      </g>
     </g>
     <g id="text_8">
      <!-- 1.75 -->
      <g transform="translate(370.509006 318.238437)scale(0.1 -0.1)">
       <use xlink:href="#DejaVuSans-49"/>
       <use x="63.623047" xlink:href="#DejaVuSans-46"/>
       <use x="95.410156" xlink:href="#DejaVuSans-55"/>
       <use x="159.033203" xlink:href="#DejaVuSans-53"/>
      </g>
     </g>
    </g>
    <g id="xtick_9">
     <g id="line2d_9">
      <g>
       <use style="stroke:#000000;stroke-width:0.8;" x="428.669091" xlink:href="#m714cfc16a1" y="303.64"/>
      </g>
     </g>
     <g id="text_9">
      <!-- 2.00 -->
      <g transform="translate(417.536278 318.238437)scale(0.1 -0.1)">
       <use xlink:href="#DejaVuSans-50"/>
       <use x="63.623047" xlink:href="#DejaVuSans-46"/>
       <use x="95.410156" xlink:href="#DejaVuSans-48"/>
       <use x="159.033203" xlink:href="#DejaVuSans-48"/>
      </g>
     </g>
    </g>
    <g id="text_10">
     <!-- $x$ -->
     <defs>
      <path d="M 60.015625 54.6875 
L 34.90625 27.875 
L 50.296875 0 
L 39.984375 0 
L 28.421875 21.6875 
L 8.296875 0 
L -2.59375 0 
L 24.3125 28.8125 
L 10.015625 54.6875 
L 20.3125 54.6875 
L 30.8125 34.90625 
L 49.125 54.6875 
z
" id="DejaVuSans-Oblique-120"/>
     </defs>
     <g transform="translate(237.56 331.916562)scale(0.1 -0.1)">
      <use transform="translate(0 0.3125)" xlink:href="#DejaVuSans-Oblique-120"/>
     </g>
    </g>
   </g>
   <g id="matplotlib.axis_2">
    <g id="ytick_1">
     <g id="line2d_10">
      <defs>
       <path d="M 0 0 
L -3.5 0 
" id="m7be6150985" style="stroke:#000000;stroke-width:0.8;"/>
      </defs>
      <g>
       <use style="stroke:#000000;stroke-width:0.8;" x="33.64" xlink:href="#m7be6150985" y="290.443636"/>
      </g>
     </g>
     <g id="text_11">
      <!-- 0.0 -->
      <g transform="translate(10.736875 294.242855)scale(0.1 -0.1)">
       <use xlink:href="#DejaVuSans-48"/>
       <use x="63.623047" xlink:href="#DejaVuSans-46"/>
       <use x="95.410156" xlink:href="#DejaVuSans-48"/>
      </g>
     </g>
    </g>
    <g id="ytick_2">
     <g id="line2d_11">
      <g>
       <use style="stroke:#000000;stroke-width:0.8;" x="33.64" xlink:href="#m7be6150985" y="237.658182"/>
      </g>
     </g>
     <g id="text_12">
      <!-- 0.2 -->
      <g transform="translate(10.736875 241.457401)scale(0.1 -0.1)">
       <use xlink:href="#DejaVuSans-48"/>
       <use x="63.623047" xlink:href="#DejaVuSans-46"/>
       <use x="95.410156" xlink:href="#DejaVuSans-50"/>
      </g>
     </g>
    </g>
    <g id="ytick_3">
     <g id="line2d_12">
      <g>
       <use style="stroke:#000000;stroke-width:0.8;" x="33.64" xlink:href="#m7be6150985" y="184.872727"/>
      </g>
     </g>
     <g id="text_13">
      <!-- 0.4 -->
      <defs>
       <path d="M 37.796875 64.3125 
L 12.890625 25.390625 
L 37.796875 25.390625 
z
M 35.203125 72.90625 
L 47.609375 72.90625 
L 47.609375 25.390625 
L 58.015625 25.390625 
L 58.015625 17.1875 
L 47.609375 17.1875 
L 47.609375 0 
L 37.796875 0 
L 37.796875 17.1875 
L 4.890625 17.1875 
L 4.890625 26.703125 
z
" id="DejaVuSans-52"/>
      </defs>
      <g transform="translate(10.736875 188.671946)scale(0.1 -0.1)">
       <use xlink:href="#DejaVuSans-48"/>
       <use x="63.623047" xlink:href="#DejaVuSans-46"/>
       <use x="95.410156" xlink:href="#DejaVuSans-52"/>
      </g>
     </g>
    </g>
    <g id="ytick_4">
     <g id="line2d_13">
      <g>
       <use style="stroke:#000000;stroke-width:0.8;" x="33.64" xlink:href="#m7be6150985" y="132.087273"/>
      </g>
     </g>
     <g id="text_14">
      <!-- 0.6 -->
      <defs>
       <path d="M 33.015625 40.375 
Q 26.375 40.375 22.484375 35.828125 
Q 18.609375 31.296875 18.609375 23.390625 
Q 18.609375 15.53125 22.484375 10.953125 
Q 26.375 6.390625 33.015625 6.390625 
Q 39.65625 6.390625 43.53125 10.953125 
Q 47.40625 15.53125 47.40625 23.390625 
Q 47.40625 31.296875 43.53125 35.828125 
Q 39.65625 40.375 33.015625 40.375 
z
M 52.59375 71.296875 
L 52.59375 62.3125 
Q 48.875 64.0625 45.09375 64.984375 
Q 41.3125 65.921875 37.59375 65.921875 
Q 27.828125 65.921875 22.671875 59.328125 
Q 17.53125 52.734375 16.796875 39.40625 
Q 19.671875 43.65625 24.015625 45.921875 
Q 28.375 48.1875 33.59375 48.1875 
Q 44.578125 48.1875 50.953125 41.515625 
Q 57.328125 34.859375 57.328125 23.390625 
Q 57.328125 12.15625 50.6875 5.359375 
Q 44.046875 -1.421875 33.015625 -1.421875 
Q 20.359375 -1.421875 13.671875 8.265625 
Q 6.984375 17.96875 6.984375 36.375 
Q 6.984375 53.65625 15.1875 63.9375 
Q 23.390625 74.21875 37.203125 74.21875 
Q 40.921875 74.21875 44.703125 73.484375 
Q 48.484375 72.75 52.59375 71.296875 
z
" id="DejaVuSans-54"/>
      </defs>
      <g transform="translate(10.736875 135.886491)scale(0.1 -0.1)">
       <use xlink:href="#DejaVuSans-48"/>
       <use x="63.623047" xlink:href="#DejaVuSans-46"/>
       <use x="95.410156" xlink:href="#DejaVuSans-54"/>
      </g>
     </g>
    </g>
    <g id="ytick_5">
     <g id="line2d_14">
      <g>
       <use style="stroke:#000000;stroke-width:0.8;" x="33.64" xlink:href="#m7be6150985" y="79.301818"/>
      </g>
     </g>
     <g id="text_15">
      <!-- 0.8 -->
      <defs>
       <path d="M 31.78125 34.625 
Q 24.75 34.625 20.71875 30.859375 
Q 16.703125 27.09375 16.703125 20.515625 
Q 16.703125 13.921875 20.71875 10.15625 
Q 24.75 6.390625 31.78125 6.390625 
Q 38.8125 6.390625 42.859375 10.171875 
Q 46.921875 13.96875 46.921875 20.515625 
Q 46.921875 27.09375 42.890625 30.859375 
Q 38.875 34.625 31.78125 34.625 
z
M 21.921875 38.8125 
Q 15.578125 40.375 12.03125 44.71875 
Q 8.5 49.078125 8.5 55.328125 
Q 8.5 64.0625 14.71875 69.140625 
Q 20.953125 74.21875 31.78125 74.21875 
Q 42.671875 74.21875 48.875 69.140625 
Q 55.078125 64.0625 55.078125 55.328125 
Q 55.078125 49.078125 51.53125 44.71875 
Q 48 40.375 41.703125 38.8125 
Q 48.828125 37.15625 52.796875 32.3125 
Q 56.78125 27.484375 56.78125 20.515625 
Q 56.78125 9.90625 50.3125 4.234375 
Q 43.84375 -1.421875 31.78125 -1.421875 
Q 19.734375 -1.421875 13.25 4.234375 
Q 6.78125 9.90625 6.78125 20.515625 
Q 6.78125 27.484375 10.78125 32.3125 
Q 14.796875 37.15625 21.921875 38.8125 
z
M 18.3125 54.390625 
Q 18.3125 48.734375 21.84375 45.5625 
Q 25.390625 42.390625 31.78125 42.390625 
Q 38.140625 42.390625 41.71875 45.5625 
Q 45.3125 48.734375 45.3125 54.390625 
Q 45.3125 60.0625 41.71875 63.234375 
Q 38.140625 66.40625 31.78125 66.40625 
Q 25.390625 66.40625 21.84375 63.234375 
Q 18.3125 60.0625 18.3125 54.390625 
z
" id="DejaVuSans-56"/>
      </defs>
      <g transform="translate(10.736875 83.101037)scale(0.1 -0.1)">
       <use xlink:href="#DejaVuSans-48"/>
       <use x="63.623047" xlink:href="#DejaVuSans-46"/>
       <use x="95.410156" xlink:href="#DejaVuSans-56"/>
      </g>
     </g>
    </g>
    <g id="ytick_6">
     <g id="line2d_15">
      <g>
       <use style="stroke:#000000;stroke-width:0.8;" x="33.64" xlink:href="#m7be6150985" y="26.516364"/>
      </g>
     </g>
     <g id="text_16">
      <!-- 1.0 -->
      <g transform="translate(10.736875 30.315582)scale(0.1 -0.1)">
       <use xlink:href="#DejaVuSans-49"/>
       <use x="63.623047" xlink:href="#DejaVuSans-46"/>
       <use x="95.410156" xlink:href="#DejaVuSans-48"/>
      </g>
     </g>
    </g>
   </g>
   <g id="line2d_16">
    <path clip-path="url(#p13fb8c2a08)" d="M 52.450909 290.443636 
L 52.827127 28.623559 
L 57.341745 53.251141 
L 61.856364 76.662545 
L 66.370982 98.857773 
L 70.509382 118.135021 
L 74.647782 136.390343 
L 78.786182 153.623738 
L 82.548364 168.403665 
L 86.310545 182.339025 
L 90.072727 195.429818 
L 93.834909 207.676044 
L 97.220873 217.975542 
L 100.606836 227.59094 
L 103.9928 236.522239 
L 107.002545 243.886865 
L 110.012291 250.710969 
L 113.022036 256.99455 
L 116.031782 262.737607 
L 118.665309 267.319384 
L 121.298836 271.487324 
L 123.932364 275.241425 
L 126.565891 278.581689 
L 128.8232 281.115391 
L 131.080509 283.345048 
L 133.337818 285.270662 
L 135.595127 286.892231 
L 137.852436 288.209756 
L 139.733527 289.075437 
L 141.614618 289.729977 
L 143.495709 290.173375 
L 145.3768 290.405631 
L 148.010327 290.443636 
L 428.669091 290.443636 
L 428.669091 290.443636 
" style="fill:none;stroke:#1f77b4;stroke-linecap:square;stroke-width:1.5;"/>
   </g>
   <g id="line2d_17">
    <path clip-path="url(#p13fb8c2a08)" d="M 52.450909 290.443636 
L 56.213091 269.96288 
L 59.975273 250.748975 
L 63.361236 234.539617 
L 66.7472 219.356409 
L 70.133164 205.19935 
L 73.519127 192.06844 
L 76.528873 181.257979 
L 79.538618 171.258303 
L 82.548364 162.069411 
L 85.181891 154.694227 
L 87.815418 147.9398 
L 90.448945 141.806131 
L 93.082473 136.293218 
L 95.339782 132.061936 
L 97.597091 128.28672 
L 99.8544 124.967571 
L 101.735491 122.549997 
L 103.616582 120.449136 
L 105.497673 118.664987 
L 107.378764 117.197552 
L 109.259855 116.046829 
L 110.764727 115.354284 
L 112.2696 114.864435 
L 113.774473 114.577282 
L 115.279345 114.492825 
L 116.784218 114.611064 
L 118.289091 114.932 
L 119.793964 115.455632 
L 121.298836 116.18196 
L 123.179927 117.374911 
L 125.061018 118.884575 
L 126.942109 120.710952 
L 128.8232 122.854041 
L 130.704291 125.313843 
L 132.9616 128.683667 
L 135.218909 132.509556 
L 137.476218 136.791512 
L 139.733527 141.529535 
L 142.367055 147.633645 
L 145.000582 154.358512 
L 156.663345 185.444922 
L 161.177964 196.441187 
L 165.692582 206.829365 
L 169.830982 215.817672 
L 173.969382 224.295016 
L 178.107782 232.261397 
L 182.246182 239.716815 
L 186.008364 246.051069 
L 189.770545 251.96304 
L 193.532727 257.452727 
L 197.294909 262.520131 
L 200.680873 266.719742 
L 204.066836 270.577303 
L 207.4528 274.092814 
L 210.838764 277.266275 
L 213.848509 279.799977 
L 216.858255 282.063418 
L 219.868 284.056596 
L 222.877745 285.779514 
L 225.887491 287.232169 
L 228.897236 288.414563 
L 231.530764 289.227459 
L 234.164291 289.833437 
L 236.797818 290.232495 
L 239.431345 290.424634 
L 243.945964 290.443636 
L 428.669091 290.443636 
L 428.669091 290.443636 
" style="fill:none;stroke:#ff7f0e;stroke-linecap:square;stroke-width:1.5;"/>
   </g>
   <g id="line2d_18">
    <path clip-path="url(#p13fb8c2a08)" d="M 52.450909 290.443636 
L 55.084436 290.340177 
L 57.717964 290.029798 
L 60.351491 289.512501 
L 62.985018 288.788285 
L 65.618545 287.857149 
L 68.628291 286.539624 
L 71.638036 284.951838 
L 74.647782 283.09379 
L 77.657527 280.96548 
L 80.667273 278.566909 
L 83.677018 275.898077 
L 87.062982 272.572593 
L 90.448945 268.905059 
L 93.834909 264.895476 
L 97.220873 260.543843 
L 100.606836 255.850161 
L 104.369018 250.233789 
L 108.1312 244.195133 
L 111.893382 237.734193 
L 115.655564 230.85097 
L 119.793964 222.791686 
L 123.932364 214.22144 
L 128.070764 205.14023 
L 132.209164 195.548058 
L 136.723782 184.501118 
L 141.2384 172.846089 
L 145.753018 160.582973 
L 149.891418 149.320668 
L 153.277382 140.845435 
L 156.287127 133.886201 
L 159.296873 127.46749 
L 162.306618 121.589302 
L 164.940145 116.889285 
L 167.573673 112.603106 
L 170.2072 108.730765 
L 172.840727 105.272262 
L 175.098036 102.637212 
L 177.355345 100.306206 
L 179.612655 98.279245 
L 181.869964 96.556328 
L 184.127273 95.137455 
L 186.384582 94.022626 
L 188.265673 93.325858 
L 190.146764 92.840232 
L 192.027855 92.565747 
L 193.908945 92.502405 
L 195.790036 92.650204 
L 197.671127 93.009145 
L 199.552218 93.579228 
L 201.433309 94.360453 
L 203.3144 95.352819 
L 205.571709 96.822366 
L 207.829018 98.595958 
L 210.086327 100.673593 
L 212.343636 103.055273 
L 214.600945 105.740997 
L 217.234473 109.258619 
L 219.868 113.19008 
L 222.501527 117.535379 
L 225.135055 122.294515 
L 228.1448 128.240269 
L 231.154545 134.726545 
L 234.164291 141.753345 
L 237.174036 149.320668 
L 240.56 158.48 
L 245.450836 171.847389 
L 249.965455 183.553091 
L 254.480073 194.650705 
L 258.994691 205.14023 
L 263.133091 214.22144 
L 267.271491 222.791686 
L 271.409891 230.85097 
L 275.548291 238.39929 
L 279.310473 244.818001 
L 283.072655 250.814429 
L 286.834836 256.388573 
L 290.597018 261.540433 
L 293.982982 265.816055 
L 297.368945 269.749627 
L 300.754909 273.341149 
L 304.140873 276.590622 
L 307.150618 279.191889 
L 310.160364 281.522895 
L 313.170109 283.583639 
L 316.179855 285.374121 
L 319.1896 286.894342 
L 322.199345 288.144302 
L 325.209091 289.124 
L 327.842618 289.759537 
L 330.476145 290.188155 
L 333.109673 290.409854 
L 336.495636 290.443636 
L 428.669091 290.443636 
L 428.669091 290.443636 
" style="fill:none;stroke:#2ca02c;stroke-linecap:square;stroke-width:1.5;"/>
   </g>
   <g id="line2d_19">
    <path clip-path="url(#p13fb8c2a08)" d="M 52.450909 290.443636 
L 149.138982 290.340177 
L 151.772509 290.029798 
L 154.406036 289.512501 
L 157.039564 288.788285 
L 159.673091 287.857149 
L 162.682836 286.539624 
L 165.692582 284.951838 
L 168.702327 283.09379 
L 171.712073 280.96548 
L 174.721818 278.566909 
L 177.731564 275.898077 
L 181.117527 272.572593 
L 184.503491 268.905059 
L 187.889455 264.895476 
L 191.275418 260.543843 
L 194.661382 255.850161 
L 198.423564 250.233789 
L 202.185745 244.195133 
L 205.947927 237.734193 
L 209.710109 230.85097 
L 213.848509 222.791686 
L 217.986909 214.22144 
L 222.125309 205.14023 
L 226.263709 195.548058 
L 230.778327 184.501118 
L 235.292945 172.846089 
L 239.807564 160.582973 
L 243.945964 149.320668 
L 247.331927 140.845435 
L 250.341673 133.886201 
L 253.351418 127.46749 
L 256.361164 121.589302 
L 258.994691 116.889285 
L 261.628218 112.603106 
L 264.261745 108.730765 
L 266.895273 105.272262 
L 269.152582 102.637212 
L 271.409891 100.306206 
L 273.6672 98.279245 
L 275.924509 96.556328 
L 278.181818 95.137455 
L 280.439127 94.022626 
L 282.320218 93.325858 
L 284.201309 92.840232 
L 286.0824 92.565747 
L 287.963491 92.502405 
L 289.844582 92.650204 
L 291.725673 93.009145 
L 293.606764 93.579228 
L 295.487855 94.360453 
L 297.368945 95.352819 
L 299.626255 96.822366 
L 301.883564 98.595958 
L 304.140873 100.673593 
L 306.398182 103.055273 
L 308.655491 105.740997 
L 311.289018 109.258619 
L 313.922545 113.19008 
L 316.556073 117.535379 
L 319.1896 122.294515 
L 322.199345 128.240269 
L 325.209091 134.726545 
L 328.218836 141.753345 
L 331.228582 149.320668 
L 334.614545 158.48 
L 339.505382 171.847389 
L 344.02 183.553091 
L 348.534618 194.650705 
L 353.049236 205.14023 
L 357.187636 214.22144 
L 361.326036 222.791686 
L 365.464436 230.85097 
L 369.602836 238.39929 
L 373.365018 244.818001 
L 377.1272 250.814429 
L 380.889382 256.388573 
L 384.651564 261.540433 
L 388.037527 265.816055 
L 391.423491 269.749627 
L 394.809455 273.341149 
L 398.195418 276.590622 
L 401.205164 279.191889 
L 404.214909 281.522895 
L 407.224655 283.583639 
L 410.2344 285.374121 
L 413.244145 286.894342 
L 416.253891 288.144302 
L 419.263636 289.124 
L 421.897164 289.759537 
L 424.530691 290.188155 
L 427.164218 290.409854 
L 428.669091 290.443636 
L 428.669091 290.443636 
" style="fill:none;stroke:#d62728;stroke-linecap:square;stroke-width:1.5;"/>
   </g>
   <g id="line2d_20">
    <path clip-path="url(#p13fb8c2a08)" d="M 52.450909 290.443636 
L 243.193527 290.340177 
L 245.827055 290.029798 
L 248.460582 289.512501 
L 251.094109 288.788285 
L 253.727636 287.857149 
L 256.737382 286.539624 
L 259.747127 284.951838 
L 262.756873 283.09379 
L 265.766618 280.96548 
L 268.776364 278.566909 
L 271.786109 275.898077 
L 275.172073 272.572593 
L 278.558036 268.905059 
L 281.944 264.895476 
L 285.329964 260.543843 
L 288.715927 255.850161 
L 292.478109 250.233789 
L 296.240291 244.195133 
L 300.002473 237.734193 
L 303.764655 230.85097 
L 307.903055 222.791686 
L 312.041455 214.22144 
L 316.179855 205.14023 
L 320.318255 195.548058 
L 324.832873 184.501118 
L 329.347491 172.846089 
L 333.862109 160.582973 
L 337.248073 151.400415 
L 339.8816 144.941587 
L 342.515127 139.103515 
L 344.772436 134.593526 
L 347.029745 130.539603 
L 349.287055 126.941747 
L 351.544364 123.799956 
L 353.425455 121.530182 
L 355.306545 119.57712 
L 357.187636 117.940771 
L 359.068727 116.621135 
L 360.949818 115.618211 
L 362.454691 115.043905 
L 363.959564 114.672296 
L 365.464436 114.503382 
L 366.969309 114.537165 
L 368.474182 114.773644 
L 369.979055 115.212819 
L 371.483927 115.85469 
L 372.9888 116.699257 
L 374.869891 118.040008 
L 376.750982 119.697471 
L 378.632073 121.671647 
L 380.513164 123.962536 
L 382.394255 126.570137 
L 384.651564 130.11732 
L 386.908873 134.120568 
L 389.166182 138.579884 
L 391.423491 143.495265 
L 394.057018 149.806294 
L 396.690545 156.73808 
L 399.324073 164.290623 
L 401.9576 172.463923 
L 404.967345 182.564947 
L 407.977091 193.476756 
L 410.986836 205.19935 
L 414.3728 219.356409 
L 417.758764 234.539617 
L 421.144727 250.748975 
L 424.530691 267.984481 
L 428.292873 288.338552 
L 428.669091 290.443636 
L 428.669091 290.443636 
" style="fill:none;stroke:#9467bd;stroke-linecap:square;stroke-width:1.5;"/>
   </g>
   <g id="line2d_21">
    <path clip-path="url(#p13fb8c2a08)" d="M 52.450909 290.443636 
L 336.495636 290.338065 
L 338.376727 290.021353 
L 340.257818 289.493498 
L 342.138909 288.754502 
L 344.02 287.804364 
L 346.277309 286.385491 
L 348.534618 284.662573 
L 350.791927 282.635612 
L 353.049236 280.304606 
L 355.306545 277.669556 
L 357.940073 274.211053 
L 360.5736 270.338712 
L 363.207127 266.052534 
L 365.840655 261.352517 
L 368.474182 256.238662 
L 371.483927 249.887516 
L 374.493673 242.995847 
L 377.503418 235.563655 
L 380.889382 226.556345 
L 384.275345 216.864936 
L 387.661309 206.489427 
L 391.047273 195.429818 
L 394.809455 182.339025 
L 398.571636 168.403665 
L 402.333818 153.623738 
L 406.096 137.999244 
L 410.2344 119.836824 
L 414.3728 100.652479 
L 418.5112 80.446207 
L 423.025818 57.237498 
L 427.540436 32.812613 
L 428.669091 26.516364 
L 428.669091 26.516364 
" style="fill:none;stroke:#8c564b;stroke-linecap:square;stroke-width:1.5;"/>
   </g>
   <g id="patch_3">
    <path d="M 33.64 303.64 
L 33.64 13.32 
" style="fill:none;stroke:#000000;stroke-linecap:square;stroke-linejoin:miter;stroke-width:0.8;"/>
   </g>
   <g id="patch_4">
    <path d="M 447.48 303.64 
L 447.48 13.32 
" style="fill:none;stroke:#000000;stroke-linecap:square;stroke-linejoin:miter;stroke-width:0.8;"/>
   </g>
   <g id="patch_5">
    <path d="M 33.64 303.64 
L 447.48 303.64 
" style="fill:none;stroke:#000000;stroke-linecap:square;stroke-linejoin:miter;stroke-width:0.8;"/>
   </g>
   <g id="patch_6">
    <path d="M 33.64 13.32 
L 447.48 13.32 
" style="fill:none;stroke:#000000;stroke-linecap:square;stroke-linejoin:miter;stroke-width:0.8;"/>
   </g>
   <g id="legend_1">
    <g id="patch_7">
     <path d="M 160.86 66.62 
L 320.26 66.62 
Q 322.26 66.62 322.26 64.62 
L 322.26 20.32 
Q 322.26 18.32 320.26 18.32 
L 160.86 18.32 
Q 158.86 18.32 158.86 20.32 
L 158.86 64.62 
Q 158.86 66.62 160.86 66.62 
z
" style="fill:#ffffff;opacity:0.8;stroke:#cccccc;stroke-linejoin:miter;"/>
    </g>
    <g id="line2d_22">
     <path d="M 162.86 26.42 
L 182.86 26.42 
" style="fill:none;stroke:#1f77b4;stroke-linecap:square;stroke-width:1.5;"/>
    </g>
    <g id="line2d_23"/>
    <g id="text_17">
     <!-- $B_{1,3,t}(x)$ -->
     <defs>
      <path d="M 16.890625 72.90625 
L 42.09375 72.90625 
Q 52.34375 72.90625 57.421875 69.09375 
Q 62.5 65.28125 62.5 57.625 
Q 62.5 50.59375 58.125 45.484375 
Q 53.765625 40.375 46.6875 39.3125 
Q 52.734375 37.9375 55.765625 34.078125 
Q 58.796875 30.21875 58.796875 23.78125 
Q 58.796875 12.796875 50.65625 6.390625 
Q 42.53125 0 28.421875 0 
L 2.6875 0 
z
M 19.28125 34.8125 
L 14.109375 8.109375 
L 29.984375 8.109375 
Q 38.921875 8.109375 43.75 12.203125 
Q 48.578125 16.3125 48.578125 23.78125 
Q 48.578125 29.546875 45.375 32.171875 
Q 42.1875 34.8125 35.109375 34.8125 
z
M 25.09375 64.796875 
L 20.796875 42.828125 
L 35.5 42.828125 
Q 43.359375 42.828125 47.78125 46.234375 
Q 52.203125 49.65625 52.203125 55.71875 
Q 52.203125 60.453125 49.21875 62.625 
Q 46.234375 64.796875 39.703125 64.796875 
z
" id="DejaVuSans-Oblique-66"/>
      <path d="M 11.71875 12.40625 
L 22.015625 12.40625 
L 22.015625 4 
L 14.015625 -11.625 
L 7.71875 -11.625 
L 11.71875 4 
z
" id="DejaVuSans-44"/>
      <path d="M 40.578125 39.3125 
Q 47.65625 37.796875 51.625 33 
Q 55.609375 28.21875 55.609375 21.1875 
Q 55.609375 10.40625 48.1875 4.484375 
Q 40.765625 -1.421875 27.09375 -1.421875 
Q 22.515625 -1.421875 17.65625 -0.515625 
Q 12.796875 0.390625 7.625 2.203125 
L 7.625 11.71875 
Q 11.71875 9.328125 16.59375 8.109375 
Q 21.484375 6.890625 26.8125 6.890625 
Q 36.078125 6.890625 40.9375 10.546875 
Q 45.796875 14.203125 45.796875 21.1875 
Q 45.796875 27.640625 41.28125 31.265625 
Q 36.765625 34.90625 28.71875 34.90625 
L 20.21875 34.90625 
L 20.21875 43.015625 
L 29.109375 43.015625 
Q 36.375 43.015625 40.234375 45.921875 
Q 44.09375 48.828125 44.09375 54.296875 
Q 44.09375 59.90625 40.109375 62.90625 
Q 36.140625 65.921875 28.71875 65.921875 
Q 24.65625 65.921875 20.015625 65.03125 
Q 15.375 64.15625 9.8125 62.3125 
L 9.8125 71.09375 
Q 15.4375 72.65625 20.34375 73.4375 
Q 25.25 74.21875 29.59375 74.21875 
Q 40.828125 74.21875 47.359375 69.109375 
Q 53.90625 64.015625 53.90625 55.328125 
Q 53.90625 49.265625 50.4375 45.09375 
Q 46.96875 40.921875 40.578125 39.3125 
z
" id="DejaVuSans-51"/>
      <path d="M 42.28125 54.6875 
L 40.921875 47.703125 
L 23 47.703125 
L 17.1875 18.015625 
Q 16.890625 16.359375 16.75 15.234375 
Q 16.609375 14.109375 16.609375 13.484375 
Q 16.609375 10.359375 18.484375 8.9375 
Q 20.359375 7.515625 24.515625 7.515625 
L 33.59375 7.515625 
L 32.078125 0 
L 23.484375 0 
Q 15.484375 0 11.546875 3.125 
Q 7.625 6.25 7.625 12.59375 
Q 7.625 13.71875 7.765625 15.0625 
Q 7.90625 16.40625 8.203125 18.015625 
L 14.015625 47.703125 
L 6.390625 47.703125 
L 7.8125 54.6875 
L 15.28125 54.6875 
L 18.3125 70.21875 
L 27.296875 70.21875 
L 24.3125 54.6875 
z
" id="DejaVuSans-Oblique-116"/>
      <path d="M 31 75.875 
Q 24.46875 64.65625 21.28125 53.65625 
Q 18.109375 42.671875 18.109375 31.390625 
Q 18.109375 20.125 21.3125 9.0625 
Q 24.515625 -2 31 -13.1875 
L 23.1875 -13.1875 
Q 15.875 -1.703125 12.234375 9.375 
Q 8.59375 20.453125 8.59375 31.390625 
Q 8.59375 42.28125 12.203125 53.3125 
Q 15.828125 64.359375 23.1875 75.875 
z
" id="DejaVuSans-40"/>
      <path d="M 8.015625 75.875 
L 15.828125 75.875 
Q 23.140625 64.359375 26.78125 53.3125 
Q 30.421875 42.28125 30.421875 31.390625 
Q 30.421875 20.453125 26.78125 9.375 
Q 23.140625 -1.703125 15.828125 -13.1875 
L 8.015625 -13.1875 
Q 14.5 -2 17.703125 9.0625 
Q 20.90625 20.125 20.90625 31.390625 
Q 20.90625 42.671875 17.703125 53.65625 
Q 14.5 64.65625 8.015625 75.875 
z
" id="DejaVuSans-41"/>
     </defs>
     <g transform="translate(190.86 29.92)scale(0.1 -0.1)">
      <use transform="translate(0 0.125)" xlink:href="#DejaVuSans-Oblique-66"/>
      <use transform="translate(68.603516 -16.28125)scale(0.7)" xlink:href="#DejaVuSans-49"/>
      <use transform="translate(113.139648 -16.28125)scale(0.7)" xlink:href="#DejaVuSans-44"/>
      <use transform="translate(149.02832 -16.28125)scale(0.7)" xlink:href="#DejaVuSans-51"/>
      <use transform="translate(193.564453 -16.28125)scale(0.7)" xlink:href="#DejaVuSans-44"/>
      <use transform="translate(229.453125 -16.28125)scale(0.7)" xlink:href="#DejaVuSans-Oblique-116"/>
      <use transform="translate(259.633789 0.125)" xlink:href="#DejaVuSans-40"/>
      <use transform="translate(298.647461 0.125)" xlink:href="#DejaVuSans-Oblique-120"/>
      <use transform="translate(357.827148 0.125)" xlink:href="#DejaVuSans-41"/>
     </g>
    </g>
    <g id="line2d_24">
     <path d="M 162.86 41.52 
L 182.86 41.52 
" style="fill:none;stroke:#ff7f0e;stroke-linecap:square;stroke-width:1.5;"/>
    </g>
    <g id="line2d_25"/>
    <g id="text_18">
     <!-- $B_{2,3,t}(x)$ -->
     <g transform="translate(190.86 45.02)scale(0.1 -0.1)">
      <use transform="translate(0 0.125)" xlink:href="#DejaVuSans-Oblique-66"/>
      <use transform="translate(68.603516 -16.28125)scale(0.7)" xlink:href="#DejaVuSans-50"/>
      <use transform="translate(113.139648 -16.28125)scale(0.7)" xlink:href="#DejaVuSans-44"/>
      <use transform="translate(149.02832 -16.28125)scale(0.7)" xlink:href="#DejaVuSans-51"/>
      <use transform="translate(193.564453 -16.28125)scale(0.7)" xlink:href="#DejaVuSans-44"/>
      <use transform="translate(229.453125 -16.28125)scale(0.7)" xlink:href="#DejaVuSans-Oblique-116"/>
      <use transform="translate(259.633789 0.125)" xlink:href="#DejaVuSans-40"/>
      <use transform="translate(298.647461 0.125)" xlink:href="#DejaVuSans-Oblique-120"/>
      <use transform="translate(357.827148 0.125)" xlink:href="#DejaVuSans-41"/>
     </g>
    </g>
    <g id="line2d_26">
     <path d="M 162.86 56.62 
L 182.86 56.62 
" style="fill:none;stroke:#2ca02c;stroke-linecap:square;stroke-width:1.5;"/>
    </g>
    <g id="line2d_27"/>
    <g id="text_19">
     <!-- $B_{3,3,t}(x)$ -->
     <g transform="translate(190.86 60.12)scale(0.1 -0.1)">
      <use transform="translate(0 0.125)" xlink:href="#DejaVuSans-Oblique-66"/>
      <use transform="translate(68.603516 -16.28125)scale(0.7)" xlink:href="#DejaVuSans-51"/>
      <use transform="translate(113.139648 -16.28125)scale(0.7)" xlink:href="#DejaVuSans-44"/>
      <use transform="translate(149.02832 -16.28125)scale(0.7)" xlink:href="#DejaVuSans-51"/>
      <use transform="translate(193.564453 -16.28125)scale(0.7)" xlink:href="#DejaVuSans-44"/>
      <use transform="translate(229.453125 -16.28125)scale(0.7)" xlink:href="#DejaVuSans-Oblique-116"/>
      <use transform="translate(259.633789 0.125)" xlink:href="#DejaVuSans-40"/>
      <use transform="translate(298.647461 0.125)" xlink:href="#DejaVuSans-Oblique-120"/>
      <use transform="translate(357.827148 0.125)" xlink:href="#DejaVuSans-41"/>
     </g>
    </g>
    <g id="line2d_28">
     <path d="M 250.56 26.42 
L 270.56 26.42 
" style="fill:none;stroke:#d62728;stroke-linecap:square;stroke-width:1.5;"/>
    </g>
    <g id="line2d_29"/>
    <g id="text_20">
     <!-- $B_{4,3,t}(x)$ -->
     <g transform="translate(278.56 29.92)scale(0.1 -0.1)">
      <use transform="translate(0 0.125)" xlink:href="#DejaVuSans-Oblique-66"/>
      <use transform="translate(68.603516 -16.28125)scale(0.7)" xlink:href="#DejaVuSans-52"/>
      <use transform="translate(113.139648 -16.28125)scale(0.7)" xlink:href="#DejaVuSans-44"/>
      <use transform="translate(149.02832 -16.28125)scale(0.7)" xlink:href="#DejaVuSans-51"/>
      <use transform="translate(193.564453 -16.28125)scale(0.7)" xlink:href="#DejaVuSans-44"/>
      <use transform="translate(229.453125 -16.28125)scale(0.7)" xlink:href="#DejaVuSans-Oblique-116"/>
      <use transform="translate(259.633789 0.125)" xlink:href="#DejaVuSans-40"/>
      <use transform="translate(298.647461 0.125)" xlink:href="#DejaVuSans-Oblique-120"/>
      <use transform="translate(357.827148 0.125)" xlink:href="#DejaVuSans-41"/>
     </g>
    </g>
    <g id="line2d_30">
     <path d="M 250.56 41.52 
L 270.56 41.52 
" style="fill:none;stroke:#9467bd;stroke-linecap:square;stroke-width:1.5;"/>
    </g>
    <g id="line2d_31"/>
    <g id="text_21">
     <!-- $B_{5,3,t}(x)$ -->
     <g transform="translate(278.56 45.02)scale(0.1 -0.1)">
      <use transform="translate(0 0.125)" xlink:href="#DejaVuSans-Oblique-66"/>
      <use transform="translate(68.603516 -16.28125)scale(0.7)" xlink:href="#DejaVuSans-53"/>
      <use transform="translate(113.139648 -16.28125)scale(0.7)" xlink:href="#DejaVuSans-44"/>
      <use transform="translate(149.02832 -16.28125)scale(0.7)" xlink:href="#DejaVuSans-51"/>
      <use transform="translate(193.564453 -16.28125)scale(0.7)" xlink:href="#DejaVuSans-44"/>
      <use transform="translate(229.453125 -16.28125)scale(0.7)" xlink:href="#DejaVuSans-Oblique-116"/>
      <use transform="translate(259.633789 0.125)" xlink:href="#DejaVuSans-40"/>
      <use transform="translate(298.647461 0.125)" xlink:href="#DejaVuSans-Oblique-120"/>
      <use transform="translate(357.827148 0.125)" xlink:href="#DejaVuSans-41"/>
     </g>
    </g>
    <g id="line2d_32">
     <path d="M 250.56 56.62 
L 270.56 56.62 
" style="fill:none;stroke:#8c564b;stroke-linecap:square;stroke-width:1.5;"/>
    </g>
    <g id="line2d_33"/>
    <g id="text_22">
     <!-- $B_{6,3,t}(x)$ -->
     <g transform="translate(278.56 60.12)scale(0.1 -0.1)">
      <use transform="translate(0 0.125)" xlink:href="#DejaVuSans-Oblique-66"/>
      <use transform="translate(68.603516 -16.28125)scale(0.7)" xlink:href="#DejaVuSans-54"/>
      <use transform="translate(113.139648 -16.28125)scale(0.7)" xlink:href="#DejaVuSans-44"/>
      <use transform="translate(149.02832 -16.28125)scale(0.7)" xlink:href="#DejaVuSans-51"/>
      <use transform="translate(193.564453 -16.28125)scale(0.7)" xlink:href="#DejaVuSans-44"/>
      <use transform="translate(229.453125 -16.28125)scale(0.7)" xlink:href="#DejaVuSans-Oblique-116"/>
      <use transform="translate(259.633789 0.125)" xlink:href="#DejaVuSans-40"/>
      <use transform="translate(298.647461 0.125)" xlink:href="#DejaVuSans-Oblique-120"/>
      <use transform="translate(357.827148 0.125)" xlink:href="#DejaVuSans-41"/>
     </g>
    </g>
   </g>
  </g>
 </g>
 <defs>
  <clipPath id="p13fb8c2a08">
   <rect height="290.32" width="413.84" x="33.64" y="13.32"/>
  </clipPath>
 </defs>
</svg>
